<?xml version="1.0" standalone="no"?>
<!DOCTYPE svg PUBLIC "-//W3C//DTD SVG 20010904//EN"
 "http://www.w3.org/TR/2001/REC-SVG-20010904/DTD/svg10.dtd">
<svg version="1.0" xmlns="http://www.w3.org/2000/svg"
 width="512.000000pt" height="512.000000pt" viewBox="0 0 512.000000 512.000000"
 preserveAspectRatio="xMidYMid meet">
<metadata>
Created by potrace 1.14, written by Peter Selinger 2001-2017
</metadata>
<g transform="translate(0.000000,512.000000) scale(0.100000,-0.100000)"
fill="#000000" stroke="none">
<path d="M2341 4963 c-7 -12 -10 -14 -11 -4 0 11 -3 11 -17 0 -15 -12 -16 -12
-8 1 4 8 -1 6 -12 -5 -11 -11 -18 -26 -15 -34 3 -9 1 -12 -6 -7 -8 5 -12 0
-12 -13 0 -12 -5 -21 -11 -21 -5 0 -7 -4 -4 -10 3 -5 1 -10 -4 -10 -6 0 -11
-7 -11 -16 0 -8 -3 -13 -7 -11 -5 3 -9 -8 -9 -25 -1 -17 -7 -34 -15 -39 -11
-6 -11 -11 -2 -20 8 -8 9 -18 3 -30 -6 -11 -6 -20 -1 -24 5 -3 8 -21 6 -40 -2
-19 0 -33 3 -31 4 2 7 -9 8 -25 1 -16 -3 -26 -8 -22 -6 3 -5 -5 2 -17 7 -13 8
-20 2 -16 -6 3 -13 2 -17 -4 -3 -5 -1 -10 6 -10 10 0 10 -3 1 -12 -7 -7 -8
-17 -1 -30 7 -13 6 -18 -2 -18 -8 0 -8 -4 -1 -12 15 -19 15 -30 0 -39 -10 -7
-9 -9 4 -9 15 0 16 -4 8 -26 -7 -16 -7 -23 0 -19 10 6 14 -13 10 -48 -1 -10 4
-26 12 -35 11 -13 11 -15 -2 -7 -9 5 -8 0 4 -13 11 -12 16 -25 13 -29 -4 -3
-7 0 -7 7 0 7 -3 11 -6 8 -3 -4 2 -18 11 -32 13 -19 14 -26 4 -26 -8 0 -5 -6
7 -16 10 -8 13 -13 7 -9 -7 3 -13 1 -13 -4 0 -6 5 -11 11 -11 6 0 4 -7 -5 -15
-8 -9 -13 -22 -10 -30 4 -9 0 -15 -7 -15 -10 0 -10 -3 -1 -12 13 -13 16 -32 4
-24 -4 2 -8 -4 -8 -14 0 -10 3 -17 6 -15 4 2 7 -9 7 -25 0 -16 -3 -27 -7 -25
-3 2 -6 -5 -6 -15 0 -10 3 -17 7 -14 4 2 6 -26 5 -61 -1 -38 3 -65 9 -65 6 0
6 -3 0 -8 -12 -8 -11 -37 1 -66 5 -12 4 -17 -3 -13 -6 4 -8 -3 -5 -18 2 -14 8
-25 13 -25 5 0 9 -5 9 -11 0 -5 -4 -8 -8 -5 -4 2 -8 -4 -8 -14 0 -10 4 -16 8
-14 4 3 8 -12 9 -33 0 -21 2 -46 5 -55 10 -45 11 -54 2 -70 -6 -13 -5 -18 4
-18 9 0 10 -3 2 -8 -6 -4 -10 -17 -9 -29 1 -13 -3 -23 -8 -23 -5 0 -4 -7 3
-15 10 -12 9 -15 -6 -16 -12 0 -14 -3 -6 -6 10 -4 10 -8 1 -20 -10 -12 -10
-16 2 -24 9 -6 10 -12 4 -16 -14 -11 -19 -47 -6 -38 11 6 13 -9 14 -142 0 -40
4 -73 9 -73 5 0 4 -9 -2 -19 -7 -14 -6 -21 3 -24 9 -4 8 -6 -2 -6 -11 -1 -11
-4 0 -18 10 -11 10 -14 2 -9 -10 5 -11 1 -3 -19 13 -34 13 -37 -2 -30 -7 4 -4
-1 6 -9 11 -9 14 -16 7 -16 -7 0 -9 -5 -5 -11 10 -17 11 -83 1 -90 -4 -3 -9
-15 -10 -26 0 -13 -6 -19 -14 -16 -8 3 -13 -3 -13 -17 0 -17 -4 -21 -20 -17
-10 3 -18 0 -17 -5 3 -15 -51 -29 -59 -16 -5 7 -2 8 6 3 8 -5 11 -4 6 3 -4 6
-13 9 -21 5 -10 -3 -15 1 -15 12 0 9 -4 13 -10 10 -5 -3 -10 1 -10 9 0 9 -4
16 -9 16 -12 0 -43 68 -36 79 3 5 1 11 -5 13 -5 1 -11 13 -13 26 -2 13 -10 28
-18 33 -11 7 -10 9 5 9 19 0 19 0 1 13 -10 8 -15 19 -11 25 4 7 3 12 -2 12 -5
0 -8 11 -7 25 2 14 -1 25 -6 25 -6 0 -7 5 -4 10 3 6 0 10 -7 10 -11 0 -10 2 0
9 11 6 10 10 -4 15 -16 6 -16 8 -4 16 8 6 10 10 4 10 -6 0 -10 12 -8 26 2 20
-1 24 -13 20 -13 -5 -14 -4 -4 8 7 9 8 17 2 20 -5 3 -7 16 -3 28 3 13 1 19 -5
15 -6 -4 -13 2 -16 13 -3 12 -1 18 5 14 6 -4 6 1 -1 13 -6 11 -7 23 -4 27 3 3
1 6 -6 6 -7 0 -10 3 -8 8 5 9 -29 42 -36 35 -3 -2 -8 5 -12 16 -8 27 -34 31
-70 11 -16 -9 -36 -16 -42 -14 -7 1 -17 2 -23 3 -13 1 -13 31 1 31 6 0 7 -6 2
-12 -4 -7 6 -5 21 6 16 10 25 13 22 7 -14 -22 6 -10 34 20 15 17 33 28 39 25
8 -5 8 1 0 21 -5 15 -7 24 -3 20 13 -13 32 13 26 36 -3 12 -8 24 -12 27 -4 3
-10 15 -14 27 -6 19 -4 22 11 16 15 -6 16 -4 5 9 -10 13 -10 18 -1 24 8 5 9 3
4 -6 -6 -9 -4 -11 5 -5 11 7 10 10 -1 19 -20 16 -23 40 -5 33 10 -4 13 -1 9 9
-3 7 -9 14 -15 14 -5 0 -6 5 -3 10 3 6 1 10 -5 10 -7 0 -9 7 -6 16 4 9 1 23
-5 30 -9 11 -8 14 1 14 9 0 10 3 1 13 -8 10 -7 17 2 27 9 10 9 11 0 6 -13 -7
-18 9 -15 48 2 12 -3 16 -12 13 -11 -5 -13 0 -5 25 4 17 11 33 14 36 2 3 0 11
-5 18 -6 6 -10 16 -9 20 3 20 -2 35 -10 30 -5 -4 -8 2 -6 11 1 10 -2 24 -8 31
-8 10 -7 12 3 10 13 -3 16 2 19 38 1 9 6 12 14 8 9 -6 9 -4 1 7 -6 8 -11 27
-12 43 -1 16 -7 35 -13 42 -9 11 -8 14 0 14 7 0 9 5 5 12 -7 11 -12 59 -13
136 -1 18 -5 31 -10 27 -10 -6 -7 27 4 45 3 6 0 10 -7 10 -9 0 -9 3 2 10 13 9
13 10 0 10 -13 0 -13 1 0 10 13 8 8 14 -11 12 -3 -1 -6 5 -6 13 0 8 4 12 9 9
4 -3 3 6 -4 20 -6 14 -18 26 -27 26 -12 0 -13 2 -3 9 10 6 6 16 -17 40 -17 18
-31 37 -31 41 0 4 -7 11 -16 14 -8 3 -12 2 -9 -4 3 -6 -1 -7 -9 -4 -9 3 -13
11 -9 18 3 6 1 6 -8 -1 -14 -14 -33 -18 -25 -5 2 4 -6 9 -20 10 -13 1 -24 -2
-24 -7 0 -9 -38 -24 -53 -22 -5 1 -6 -3 -2 -9 5 -9 -7 -14 -26 -12 -4 1 -5 -8
-2 -18 4 -13 0 -20 -9 -20 -10 0 -14 -10 -13 -30 1 -16 -2 -30 -6 -30 -4 0
-10 -12 -15 -27 -10 -39 -13 -253 -3 -281 5 -13 5 -21 1 -18 -10 6 -9 -25 2
-42 4 -7 9 -36 11 -65 2 -29 4 -54 5 -57 2 -3 2 -8 1 -12 0 -5 3 -8 9 -8 5 0
7 -6 4 -13 -2 -7 4 -22 13 -32 20 -22 24 -52 8 -63 -5 -4 -10 -16 -10 -27 0
-11 5 -23 10 -27 7 -5 6 -8 0 -8 -12 0 -10 -163 2 -190 12 -30 11 -39 -5 -33
-13 4 -13 2 2 -9 10 -8 16 -20 12 -26 -3 -5 0 -13 6 -15 10 -4 10 -6 0 -6 -7
-1 -10 -6 -6 -12 4 -7 7 -24 8 -38 1 -14 6 -25 11 -24 6 1 10 -18 9 -43 0 -24
2 -44 6 -44 3 0 7 -9 8 -20 4 -45 6 -50 21 -48 10 2 16 -4 16 -17 0 -11 5 -23
10 -27 6 -5 4 -12 -5 -18 -10 -6 -11 -10 -2 -10 6 0 12 -5 12 -11 0 -5 -5 -7
-12 -3 -7 5 -8 3 -3 -7 12 -19 12 -73 0 -81 -6 -5 -5 -8 3 -8 7 0 10 -4 7 -10
-3 -5 -1 -10 6 -10 6 0 9 -8 6 -20 -3 -11 -2 -22 2 -24 3 -2 6 -36 6 -75 -1
-43 3 -71 10 -71 5 0 4 -4 -3 -9 -11 -7 -10 -9 3 -15 9 -3 13 -10 10 -16 -3
-5 -1 -10 5 -10 6 0 8 -4 5 -10 -3 -5 -1 -10 5 -10 6 0 8 -5 4 -11 -3 -6 0
-15 7 -20 12 -7 12 -9 0 -9 -11 0 -11 -3 0 -17 12 -15 12 -16 -1 -8 -13 8 -13
6 -1 -8 7 -9 11 -23 8 -32 -4 -8 -2 -17 4 -21 6 -4 6 -11 -2 -20 -10 -12 -9
-13 5 -8 11 4 16 1 16 -11 0 -10 -4 -13 -12 -9 -10 6 -10 5 -2 -7 16 -19 24
-119 10 -119 -5 0 -1 -6 9 -14 15 -11 17 -17 7 -28 -6 -8 -10 -24 -7 -36 2
-12 -1 -25 -7 -28 -7 -5 -8 -2 -4 7 5 9 2 8 -6 -2 -19 -23 -62 -49 -88 -54
-27 -5 -58 22 -87 77 -11 21 -23 35 -25 32 -3 -3 -8 2 -12 11 -4 11 -2 14 7 9
9 -5 9 -4 0 6 -6 7 -9 18 -7 25 3 7 1 16 -5 20 -6 3 -11 15 -11 26 0 10 -5 19
-11 19 -5 0 -7 5 -4 11 4 5 0 18 -7 27 -25 29 -33 46 -17 37 12 -8 12 -6 0 8
-7 9 -10 17 -5 17 5 0 0 7 -10 15 -11 8 -16 15 -11 15 5 0 0 7 -11 16 -10 8
-12 12 -4 8 13 -7 13 -6 0 12 -20 25 -32 34 -42 28 -4 -3 -8 2 -8 10 0 8 -5
18 -12 22 -7 4 -8 3 -4 -4 4 -7 3 -12 -2 -12 -5 0 -12 9 -15 20 -5 18 -39 30
-36 13 5 -33 -33 -49 -44 -19 -3 8 1 13 11 12 10 -1 20 11 25 29 5 17 13 37
17 46 5 10 4 21 -3 28 -8 8 -6 11 8 11 17 0 17 1 2 18 -10 10 -17 26 -17 35 0
9 -4 17 -10 17 -5 0 -10 7 -10 15 0 8 -6 15 -12 15 -10 0 -9 3 1 9 9 6 10 10
2 12 -7 3 -13 14 -14 27 0 12 -5 22 -9 22 -4 0 -8 8 -8 18 0 10 -9 28 -21 40
-11 12 -17 27 -14 32 3 5 -2 17 -12 27 -20 20 -25 64 -8 75 6 5 6 8 0 8 -5 0
-10 13 -10 29 0 16 3 27 7 25 4 -2 10 0 13 6 4 6 3 10 -2 9 -19 -3 -23 2 -14
20 8 14 7 20 -4 25 -8 3 -15 12 -15 21 0 8 -5 15 -11 15 -8 0 -7 6 2 17 12 15
12 16 -1 8 -12 -7 -13 -6 -3 6 10 12 10 18 0 29 -10 10 -9 11 3 5 12 -6 13 -5
3 6 -17 17 -17 32 0 23 8 -5 8 -2 -2 9 -11 14 -11 17 0 17 12 0 12 2 1 9 -8 4
-13 11 -13 15 3 19 0 27 -8 22 -5 -4 -8 5 -7 18 2 14 -2 23 -10 22 -7 0 -14 4
-16 9 -7 29 -44 50 -85 50 -26 -1 -44 4 -47 12 -3 7 -12 10 -21 7 -8 -3 -13
-9 -10 -14 2 -4 -7 -6 -20 -4 -14 1 -23 -1 -21 -4 5 -11 -41 -52 -50 -44 -4 4
-4 2 -1 -4 3 -6 -1 -23 -9 -38 -18 -37 -20 -216 -1 -235 9 -11 9 -13 0 -7 -7
4 -13 3 -13 -3 0 -5 5 -11 10 -13 6 -2 12 -26 13 -55 1 -28 5 -49 8 -47 9 5
16 -17 14 -43 -1 -12 1 -22 4 -21 20 2 22 -4 5 -17 -19 -15 -19 -15 0 -8 16 5
18 3 13 -11 -4 -10 -3 -15 3 -11 6 3 10 1 10 -5 0 -7 6 -10 13 -7 12 4 15 -20
7 -43 -6 -15 4 -66 14 -72 7 -5 6 -8 -4 -8 -13 0 -13 -2 -1 -9 8 -5 12 -18 8
-30 -3 -13 -1 -19 6 -14 6 4 8 -2 5 -15 -4 -12 -1 -22 4 -22 6 0 4 -8 -3 -17
-10 -11 -10 -14 -1 -9 11 6 17 -5 13 -26 0 -5 3 -8 8 -8 5 0 8 -8 7 -17 -2
-10 1 -21 7 -25 6 -3 12 -17 14 -29 2 -13 7 -26 11 -29 4 -3 13 -16 20 -29 11
-19 11 -22 0 -15 -10 6 -10 4 1 -9 7 -9 18 -14 23 -11 6 4 5 -4 -2 -16 -8 -15
-8 -20 -1 -16 6 4 11 0 11 -8 0 -9 4 -16 8 -16 5 0 9 -6 10 -12 2 -32 10 -53
19 -51 5 1 10 -8 10 -19 1 -12 8 -25 15 -29 9 -6 7 -9 -7 -9 -19 -1 -19 -1 -2
-11 9 -6 15 -14 12 -20 -4 -5 -2 -9 2 -9 5 0 9 -10 10 -22 1 -11 8 -25 15 -29
7 -5 9 -9 3 -9 -5 0 -3 -5 5 -10 13 -8 13 -10 1 -10 -11 0 -10 -4 5 -16 10 -8
13 -13 7 -9 -7 3 -13 1 -13 -4 0 -6 5 -11 12 -11 6 0 8 -3 5 -6 -3 -4 -2 -15
3 -25 7 -12 6 -19 -3 -22 -7 -3 -5 -6 6 -6 16 -1 23 -23 18 -60 -2 -8 2 -10
10 -5 9 5 10 2 6 -9 -3 -9 -1 -19 4 -23 6 -3 9 -15 6 -25 -3 -10 0 -22 5 -26
7 -4 8 -1 3 7 -5 8 -4 11 3 6 6 -4 9 -13 5 -21 -3 -8 0 -15 6 -15 6 0 8 -7 5
-15 -4 -8 -1 -15 5 -15 6 0 11 -5 11 -11 0 -5 -4 -7 -10 -4 -15 9 -12 -2 6
-19 12 -12 12 -16 2 -16 -10 0 -9 -3 2 -10 13 -9 13 -11 0 -20 -11 -7 -12 -10
-2 -10 11 0 13 -12 9 -47 -3 -27 -6 -49 -6 -51 -1 -2 -5 0 -11 3 -5 3 -10 1
-10 -4 0 -6 8 -11 18 -11 14 0 15 -2 2 -10 -8 -5 -12 -10 -9 -10 4 0 3 -18 -1
-39 -4 -25 -3 -44 3 -50 7 -7 7 -11 1 -11 -5 0 -10 -9 -10 -20 0 -11 5 -20 11
-20 5 0 3 -5 -5 -10 -12 -8 -12 -10 -1 -10 10 0 11 -3 2 -14 -10 -11 -8 -15 6
-19 13 -3 14 -5 3 -6 -12 -1 -16 -14 -15 -60 0 -33 4 -63 7 -66 4 -4 3 -18 -2
-31 -8 -19 -6 -24 6 -24 13 0 13 -2 -1 -17 -16 -16 -16 -17 1 -30 13 -9 14
-13 4 -13 -10 0 -11 -3 -3 -11 14 -14 5 -41 -11 -33 -6 3 -4 0 4 -8 17 -14 20
-45 6 -67 -6 -10 -5 -12 2 -7 7 4 12 2 12 -3 0 -6 -6 -11 -12 -11 -9 0 -10 -3
-2 -8 6 -4 12 -32 13 -62 3 -77 7 -95 20 -92 9 2 9 -3 1 -18 -8 -15 -8 -20 2
-20 9 0 9 -3 -2 -10 -8 -5 -10 -10 -4 -10 6 0 10 -11 9 -25 -2 -14 1 -27 6
-31 5 -3 9 -16 9 -30 0 -14 3 -23 8 -20 4 2 7 -12 6 -32 -3 -44 5 -64 20 -55
6 4 4 -2 -4 -12 -12 -15 -12 -17 -1 -10 11 6 13 4 8 -8 -3 -10 -2 -17 3 -17 5
0 7 -6 4 -13 -3 -8 2 -19 10 -26 8 -7 12 -19 9 -27 -3 -8 0 -14 6 -14 6 0 11
-9 11 -20 0 -11 4 -20 9 -20 5 0 12 -7 15 -16 3 -8 2 -12 -4 -9 -6 3 -10 2
-10 -4 0 -5 8 -15 18 -20 9 -6 11 -11 4 -11 -8 0 -6 -6 5 -19 32 -35 43 -50
43 -58 0 -4 11 -21 25 -37 14 -16 25 -33 25 -38 0 -4 5 -8 11 -8 14 0 39 -26
39 -41 0 -7 3 -10 6 -6 7 7 60 -44 57 -55 -2 -4 4 -8 13 -8 8 0 13 -4 10 -9
-6 -9 22 -26 37 -22 5 1 6 -2 4 -6 -5 -8 13 -30 25 -29 3 1 18 -9 31 -21 14
-12 28 -19 31 -16 3 4 6 1 6 -6 0 -7 4 -9 10 -6 5 3 10 1 10 -5 0 -6 5 -8 10
-5 6 3 10 -1 10 -10 0 -11 5 -15 15 -11 9 3 19 -3 26 -16 9 -17 13 -18 20 -7
7 11 10 9 15 -9 5 -18 9 -20 15 -10 7 10 9 11 9 0 0 -7 4 -10 10 -7 5 3 10 1
10 -4 0 -6 7 -11 16 -11 8 0 12 -5 8 -11 -4 -8 0 -9 15 -4 13 4 21 2 21 -5 0
-6 4 -9 9 -6 5 3 11 -1 15 -9 3 -8 12 -12 21 -9 8 3 15 1 15 -6 0 -6 4 -8 10
-5 5 3 10 2 10 -4 0 -5 8 -8 17 -7 10 2 26 -5 37 -15 15 -14 23 -16 33 -8 9 8
13 8 13 0 0 -6 7 -11 15 -11 8 0 15 6 15 13 0 8 3 7 9 -3 6 -8 7 -18 4 -24 -4
-5 -1 -6 8 0 18 11 39 14 39 6 0 -4 36 -7 80 -7 44 0 80 -1 80 -3 0 -1 -10 -7
-22 -11 -20 -8 -18 -9 12 -7 19 1 41 5 48 9 7 5 12 4 12 -2 0 -6 14 -11 31
-11 16 0 28 4 25 8 -3 5 1 9 9 9 8 0 12 -3 10 -7 -2 -3 6 -7 18 -7 17 -2 19 0
7 7 -13 8 -12 10 3 10 9 0 17 -4 17 -8 0 -5 7 -9 15 -9 8 0 11 5 8 10 -4 6 0
8 10 4 9 -3 19 -2 22 2 8 14 70 4 67 -11 -2 -9 1 -8 10 3 10 11 22 13 45 8 20
-4 30 -3 27 3 -4 6 2 7 16 3 17 -6 21 -4 14 6 -6 12 -5 12 9 0 9 -7 17 -9 17
-3 0 5 9 8 20 5 12 -3 20 0 20 7 0 9 4 9 17 -1 11 -10 14 -10 9 -1 -9 15 -1
15 26 1 15 -8 19 -8 14 0 -4 6 -1 11 6 12 47 3 88 11 106 22 6 5 17 5 22 2 6
-3 10 -2 10 4 0 6 7 7 17 4 12 -5 14 -3 8 8 -7 11 -5 11 10 -1 11 -9 16 -10
11 -2 -4 7 -2 12 6 13 7 1 18 2 23 4 6 1 18 3 28 3 11 1 15 7 11 13 -4 7 -1
10 7 7 8 -3 25 3 39 12 14 10 35 21 48 24 12 4 22 12 22 17 0 5 3 8 8 8 21 -4
32 2 26 13 -5 8 -2 9 10 5 10 -4 19 -1 22 8 4 8 10 13 14 10 5 -3 11 -1 15 5
4 6 11 8 16 5 8 -6 13 8 10 27 0 4 6 5 14 2 8 -4 15 -1 15 7 0 7 3 9 7 6 3 -4
16 4 28 18 13 13 26 21 29 18 3 -4 6 -1 6 6 0 7 5 9 12 5 6 -4 8 -3 5 3 -6 10
26 43 43 43 6 0 9 3 7 8 -1 4 1 7 5 7 3 0 17 14 29 30 13 17 32 38 42 47 11
10 16 22 11 29 -4 7 -3 9 3 6 6 -4 19 5 28 19 12 18 13 24 4 19 -8 -3 -1 5 14
19 15 14 24 26 20 26 -4 0 3 10 17 21 14 11 18 18 10 14 -12 -5 -12 -4 1 7 16
13 19 19 19 39 0 5 5 7 12 3 8 -5 9 -2 5 9 -4 10 -2 17 4 17 6 0 8 7 5 16 -3
9 -2 12 5 9 6 -4 9 -1 7 6 -4 17 41 91 51 84 4 -2 7 9 6 25 -1 16 2 27 7 24 4
-3 8 0 8 6 0 6 4 8 10 5 7 -4 7 2 0 19 -7 19 -6 24 4 20 8 -3 13 2 13 13 0 35
3 44 13 38 6 -4 10 -3 9 2 -3 20 2 44 9 40 4 -3 6 12 6 34 -1 21 2 36 7 33 5
-3 9 3 10 13 3 51 5 58 14 56 6 -1 11 7 11 17 0 10 -5 16 -11 12 -5 -3 -4 1 2
10 7 8 10 18 6 21 -3 4 -1 7 6 7 6 0 11 8 9 17 -2 10 2 17 8 16 6 -1 10 9 8
22 -1 14 2 25 7 25 4 0 6 7 3 15 -4 8 -1 15 5 15 6 0 10 3 10 8 -5 29 2 62 13
56 7 -5 8 -3 3 7 -5 7 -10 22 -10 31 -1 14 1 15 12 6 11 -8 12 -7 7 6 -3 9
-10 16 -16 16 -5 0 -6 5 -3 10 4 6 12 7 18 3 7 -4 6 0 -2 10 -7 10 -9 17 -3
17 6 0 9 11 7 25 -1 14 2 25 8 25 5 0 7 11 5 25 -3 15 -1 22 5 18 6 -4 8 0 4
10 -3 9 -3 19 2 21 4 3 7 19 6 36 -1 16 2 30 7 30 5 0 6 5 3 10 -3 6 0 10 7
10 9 0 9 3 -2 10 -8 5 -10 10 -4 10 6 0 11 10 10 22 -1 13 5 29 14 36 8 8 9
11 3 7 -8 -4 -13 0 -13 9 0 9 5 16 11 16 5 0 7 5 4 10 -3 6 -2 10 3 10 5 0 8
14 6 30 -2 19 1 33 9 36 12 4 20 42 19 92 0 14 6 22 17 23 10 0 11 2 4 6 -9 3
-10 10 -3 23 5 9 7 27 5 39 -2 12 0 19 4 16 13 -7 27 17 25 43 -1 15 3 21 11
18 9 -3 12 4 8 25 -2 16 0 29 6 29 5 0 8 9 6 20 -2 11 1 20 6 20 6 0 8 4 4 9
-3 5 -1 12 5 16 15 9 12 28 -3 19 -7 -4 -9 -3 -4 2 5 5 14 9 20 9 7 0 13 11
13 24 1 13 8 27 15 32 12 7 11 9 -1 9 -12 0 -13 2 -1 9 7 5 14 17 15 27 2 11
7 30 13 44 20 45 34 85 33 89 -1 2 6 8 15 13 13 8 16 23 14 81 -2 63 -5 74
-29 93 -31 27 -86 29 -115 5 -19 -15 -19 -15 -5 3 15 19 14 19 -17 2 -18 -9
-33 -14 -33 -11 0 3 -10 -1 -23 -10 -13 -8 -27 -13 -30 -10 -4 3 -5 2 -3 -1 6
-8 -48 -54 -62 -54 -6 0 -15 -7 -20 -16 -5 -9 -12 -15 -15 -15 -4 1 -7 -2 -6
-5 0 -3 -12 -17 -28 -32 -15 -14 -27 -30 -25 -34 1 -4 -5 -8 -13 -8 -8 0 -15
-4 -15 -9 0 -4 -11 -20 -25 -35 -13 -14 -25 -30 -25 -34 0 -4 -13 -20 -28 -37
-15 -17 -27 -40 -26 -53 1 -14 -3 -21 -10 -19 -7 3 -12 -3 -13 -12 -1 -9 -6
-27 -11 -41 -5 -14 -10 -29 -10 -33 0 -5 -9 -15 -19 -24 -10 -8 -12 -11 -4 -7
11 6 13 3 7 -12 -11 -26 -14 -44 -15 -77 -1 -20 -5 -26 -13 -21 -9 6 -9 3 0
-9 14 -17 7 -42 -9 -32 -8 6 -13 -8 -10 -27 0 -5 -3 -8 -9 -8 -5 0 -10 -7 -10
-15 0 -8 -5 -15 -12 -15 -6 0 -8 -3 -5 -7 4 -3 2 -12 -4 -20 -9 -9 -8 -13 0
-13 9 0 9 -5 1 -20 -8 -15 -8 -20 2 -20 9 0 9 -3 -2 -10 -8 -5 -11 -12 -7 -16
4 -4 1 -14 -6 -22 -9 -13 -9 -14 1 -8 6 4 12 2 12 -3 0 -6 -5 -11 -11 -11 -5
0 -7 -5 -3 -12 12 -18 11 -58 -1 -58 -5 0 -3 -5 5 -10 12 -8 12 -10 -5 -11
l-20 0 20 -9 c11 -5 14 -9 6 -9 -10 -1 -11 -4 -2 -14 8 -10 7 -17 -1 -25 -7
-7 -8 -12 -4 -12 5 0 2 -8 -5 -17 -12 -14 -12 -16 0 -9 9 6 12 5 9 -5 -3 -8
-1 -22 4 -31 5 -11 5 -18 -1 -18 -5 0 -12 6 -15 13 -3 6 -3 0 0 -15 4 -19 2
-28 -6 -28 -10 0 -10 -3 0 -15 7 -8 8 -15 3 -15 -5 0 -9 -10 -10 -22 0 -13 -4
-32 -8 -42 -7 -15 -5 -17 6 -11 12 8 12 6 1 -8 -8 -9 -11 -21 -7 -27 3 -5 1
-10 -5 -10 -6 0 -9 -8 -6 -17 3 -10 1 -25 -4 -32 -5 -9 -5 -22 2 -34 9 -17 8
-19 -7 -13 -15 5 -16 4 -5 -9 7 -8 8 -15 3 -15 -5 0 -9 -12 -9 -27 1 -16 -4
-27 -10 -26 -6 1 -11 -4 -11 -12 0 -8 5 -12 11 -9 6 3 4 0 -5 -8 -9 -7 -14
-19 -12 -25 3 -7 0 -13 -7 -13 -6 0 -9 -4 -5 -9 3 -5 1 -12 -5 -16 -5 -3 -10
-15 -10 -26 0 -11 -7 -22 -15 -25 -8 -4 -12 -10 -9 -15 3 -5 0 -9 -5 -9 -6 0
-11 -9 -11 -21 0 -11 -4 -18 -9 -14 -6 3 -8 -4 -6 -15 2 -13 -1 -20 -11 -20
-8 0 -12 -4 -9 -10 3 -5 2 -10 -4 -10 -6 0 -7 -7 -4 -17 4 -11 3 -14 -5 -9 -7
4 -12 2 -12 -4 0 -6 -7 -18 -15 -27 -8 -8 -12 -19 -9 -25 4 -6 2 -8 -3 -5 -6
4 -14 0 -17 -9 -3 -8 -10 -12 -16 -9 -9 6 -12 -1 -9 -22 0 -4 -9 -11 -21 -15
-12 -4 -19 -12 -15 -17 3 -5 0 -13 -6 -17 -8 -4 -7 -9 2 -15 11 -7 10 -9 -4
-9 -10 0 -20 -7 -23 -15 -3 -8 -15 -17 -26 -21 -16 -5 -18 -8 -7 -15 11 -7 11
-9 1 -9 -7 0 -10 -4 -7 -10 3 -5 0 -7 -9 -4 -9 3 -17 -2 -21 -15 -3 -12 -11
-21 -16 -21 -6 0 -8 -3 -6 -7 2 -5 -4 -16 -14 -25 -12 -12 -19 -13 -23 -5 -2
7 -5 4 -5 -5 -1 -9 -6 -20 -13 -24 -7 -4 -8 -3 -4 4 12 20 -6 13 -25 -9 -10
-11 -23 -18 -28 -14 -6 3 -11 1 -11 -5 0 -6 -4 -8 -10 -5 -5 3 -10 1 -10 -6 0
-6 -8 -9 -20 -6 -10 3 -18 2 -17 -2 3 -12 -37 -51 -54 -51 -19 0 -81 -29 -90
-43 -3 -5 -9 -8 -13 -7 -14 4 -66 -23 -66 -34 0 -6 -5 -4 -10 4 -6 10 -10 11
-10 3 0 -7 -3 -12 -7 -12 -23 4 -43 -2 -38 -11 3 -6 -1 -7 -9 -4 -9 3 -16 11
-16 16 0 7 -5 6 -13 -1 -8 -6 -17 -8 -21 -4 -3 4 -13 -3 -21 -14 -11 -15 -23
-20 -40 -17 -14 2 -25 0 -25 -5 0 -9 -65 -6 -81 5 -5 3 -19 -2 -33 -11 -21
-14 -25 -14 -39 -1 -12 12 -17 13 -20 3 -4 -8 -6 -7 -6 3 -1 10 -10 5 -27 -15
-14 -16 -22 -24 -18 -16 5 11 3 13 -10 8 -9 -4 -15 -3 -12 2 3 5 -1 12 -10 15
-10 4 -13 2 -8 -7 5 -8 2 -7 -9 2 -15 12 -17 11 -17 -5 0 -15 -2 -16 -9 -5 -6
8 -14 10 -22 5 -20 -12 -39 -14 -39 -3 0 5 -5 9 -11 9 -5 0 -7 -6 -4 -12 4 -7
-1 -4 -10 7 -9 11 -20 19 -25 18 -5 -2 -7 3 -4 10 3 8 -2 14 -10 14 -8 0 -13
-4 -10 -9 3 -4 -6 -8 -20 -8 -13 0 -27 6 -29 13 -4 9 -6 8 -6 -2 -1 -9 -10 -4
-25 13 -19 23 -24 25 -29 12 -8 -21 -37 -9 -37 15 0 11 -7 19 -16 19 -8 0 -12
5 -8 11 3 6 -8 3 -26 -6 -21 -11 -29 -12 -24 -4 5 8 3 11 -8 7 -14 -6 -45 28
-40 45 1 4 -3 7 -9 7 -5 0 -8 4 -5 8 2 4 -5 14 -17 22 -19 11 -21 11 -12 -1 7
-11 6 -11 -5 1 -8 8 -22 15 -30 15 -8 0 -14 5 -13 12 2 7 -4 10 -12 7 -8 -4
-15 -1 -15 6 0 6 -5 8 -11 5 -6 -4 -10 -1 -8 6 3 27 -1 40 -11 34 -6 -3 -10
-1 -10 4 0 6 6 11 13 12 6 0 1 4 -11 10 -13 5 -28 7 -33 3 -5 -3 -9 2 -9 10 0
9 -5 16 -12 16 -6 0 -9 3 -5 6 7 8 -36 53 -45 47 -5 -2 -8 1 -8 6 0 6 4 11 8
11 5 0 9 16 9 35 0 19 -4 35 -8 35 -11 0 -59 105 -59 130 0 13 -4 19 -11 14
-8 -4 -9 0 -4 15 4 13 2 21 -5 21 -6 0 -9 4 -6 9 3 5 -1 26 -10 46 -8 20 -11
35 -7 32 5 -3 7 12 5 34 -2 21 -7 37 -11 35 -11 -7 -10 48 2 62 8 10 8 15 -1
21 -6 3 -13 23 -15 44 -2 20 0 34 4 31 5 -3 9 0 9 6 0 6 5 8 10 5 14 -9 12 8
-4 30 -15 21 -10 49 8 38 6 -4 5 1 -3 10 -7 9 -9 17 -4 17 6 0 10 8 10 18 0
36 3 41 20 35 11 -4 14 -3 9 5 -4 7 -1 12 8 12 9 0 17 5 17 10 1 6 2 16 3 23
1 6 -3 18 -8 26 -9 12 -7 13 9 8 18 -6 18 -6 4 6 -20 15 -8 57 16 57 9 0 13 5
10 10 -3 6 -1 10 4 10 6 0 11 5 11 11 0 5 -5 7 -10 4 -5 -3 -10 -2 -10 4 0 5
9 13 20 16 11 4 18 11 15 16 -4 5 3 9 14 9 12 0 21 7 21 15 0 8 6 15 13 15 9
0 8 3 -2 9 -11 7 -9 10 8 16 14 4 20 12 17 21 -3 9 -1 12 4 9 6 -3 13 1 16 9
3 9 9 14 13 12 4 -3 15 6 25 20 11 13 25 24 33 24 8 0 11 4 8 10 -3 5 1 10 9
10 9 0 15 3 15 8 -3 19 2 33 11 27 6 -3 10 -1 10 5 0 7 6 10 12 8 7 -3 19 1
26 9 8 7 18 11 23 8 5 -4 9 0 9 7 0 17 50 41 50 25 1 -7 6 -6 13 3 8 10 27 15
54 14 26 -1 41 3 40 9 -1 6 3 11 10 12 6 0 15 3 19 8 4 4 12 7 18 7 6 0 4 -5
-4 -11 -12 -9 -11 -9 5 -4 11 4 26 8 33 8 6 0 12 4 12 9 0 5 6 6 13 1 16 -10
37 -13 36 -5 -3 19 2 25 10 13 5 -8 28 -14 54 -15 25 0 43 2 41 6 -2 3 10 11
26 17 17 5 30 7 30 4 0 -4 7 2 16 13 8 10 13 14 10 8 -3 -7 1 -15 10 -18 9 -3
12 -2 8 5 -7 12 38 -11 47 -25 4 -5 18 -8 33 -8 14 0 23 -4 20 -9 -3 -5 7 -4
23 2 15 5 24 7 20 3 -8 -8 38 -34 60 -34 8 0 11 -4 8 -10 -3 -5 3 -10 14 -10
12 0 21 -5 21 -11 0 -5 5 -7 10 -4 6 3 10 2 10 -4 0 -6 7 -7 17 -4 11 4 14 3
9 -5 -4 -8 -1 -12 10 -12 10 0 15 -3 11 -6 -7 -7 17 -34 31 -34 6 0 12 -7 16
-15 3 -8 11 -14 18 -13 8 2 13 -6 12 -19 0 -13 1 -21 4 -19 6 7 50 -38 45 -47
-2 -4 3 -7 12 -7 9 0 13 -4 10 -10 -3 -5 -1 -10 6 -10 7 0 10 -3 6 -6 -3 -4 1
-13 9 -21 8 -8 12 -18 9 -23 -3 -5 0 -12 6 -16 8 -5 8 -8 0 -13 -7 -5 -4 -14
9 -29 12 -12 16 -22 10 -22 -6 0 -2 -10 9 -22 16 -16 18 -25 10 -35 -9 -10 -8
-13 2 -14 8 0 5 -4 -6 -9 -16 -7 -17 -9 -3 -9 9 -1 20 -5 23 -11 4 -6 -1 -7
-11 -3 -12 4 -15 3 -10 -6 13 -20 14 -61 2 -61 -6 0 -4 -5 4 -10 12 -8 12 -10
1 -10 -10 0 -11 -3 -2 -13 8 -10 7 -17 -1 -25 -7 -7 -8 -12 -2 -12 5 0 2 -5
-6 -10 -13 -8 -13 -10 -1 -10 11 0 10 -4 -5 -16 -10 -8 -13 -12 -6 -9 11 6 11
3 1 -13 -7 -12 -16 -19 -20 -16 -4 2 -5 -5 -2 -16 3 -11 0 -20 -6 -20 -6 0 -8
-7 -4 -17 4 -11 3 -14 -6 -9 -8 5 -11 3 -9 -5 4 -20 -32 -70 -45 -62 -6 3 -7
1 -3 -6 4 -6 0 -14 -8 -17 -9 -3 -14 -9 -12 -13 3 -4 -6 -15 -19 -25 -14 -10
-22 -23 -19 -28 3 -4 0 -7 -8 -6 -7 2 -12 -3 -11 -10 2 -6 -4 -12 -12 -12 -8
0 -15 -5 -15 -11 0 -5 -4 -7 -10 -4 -5 3 -10 2 -10 -2 0 -5 -9 -14 -21 -21
-17 -11 -20 -11 -14 0 4 7 -4 1 -17 -14 -14 -15 -28 -25 -32 -21 -3 3 -6 1 -6
-6 0 -8 -8 -11 -20 -8 -12 3 -24 -1 -30 -11 -8 -14 -9 -14 -10 -2 0 12 -2 12
-9 2 -10 -16 -130 -23 -176 -10 -30 9 -79 18 -102 20 -7 1 -13 6 -13 11 0 6
-3 7 -7 4 -3 -4 -15 1 -26 10 -11 10 -17 12 -13 5 7 -11 4 -12 -13 -3 -11 7
-21 16 -21 21 0 6 -7 10 -16 10 -9 0 -12 5 -8 12 4 7 3 8 -4 4 -14 -8 -112 84
-112 106 0 8 -4 18 -10 24 -5 5 -10 24 -12 42 -1 19 -6 36 -11 39 -4 2 -3 11
4 19 9 11 8 14 -2 14 -10 0 -10 3 -1 12 15 15 16 32 1 22 -8 -4 -8 -1 -2 12 6
11 9 33 8 51 0 17 2 31 5 31 18 -2 23 4 10 12 -11 7 -11 10 -2 10 7 0 10 4 7
10 -3 5 -2 10 4 10 5 0 8 9 6 20 -2 10 5 30 15 43 11 13 16 28 12 32 -4 5 -2
5 5 2 15 -9 45 2 37 14 -5 8 9 13 29 10 4 0 7 6 7 15 0 8 5 12 10 9 6 -3 10
-2 10 4 0 5 9 8 20 6 11 -2 19 1 17 8 -1 6 8 11 20 12 12 0 25 3 29 8 12 12
26 8 18 -5 -6 -10 -4 -10 7 -2 8 6 22 14 31 17 13 4 16 2 12 -11 -5 -14 -3
-13 10 2 9 11 16 14 16 7 0 -7 4 -9 10 -6 6 3 10 2 10 -2 0 -5 10 -9 22 -10
11 -1 25 -8 29 -15 5 -7 9 -9 9 -5 0 11 90 -80 91 -93 3 -20 4 -25 13 -39 6
-10 5 -12 -2 -7 -11 6 -18 -19 -13 -46 0 -5 -3 -8 -9 -8 -5 0 -17 -9 -27 -19
-21 -22 -79 -23 -93 -2 -4 8 -13 10 -19 7 -6 -4 -11 -2 -11 4 0 6 -4 9 -9 6
-5 -4 -11 -1 -13 4 -7 22 -128 10 -128 -12 0 -5 -4 -7 -9 -3 -6 3 -15 -4 -22
-16 -14 -26 -20 -99 -8 -99 4 0 6 -9 4 -20 -2 -11 3 -26 11 -34 8 -8 14 -19
14 -25 0 -6 5 -11 11 -11 5 0 7 -4 4 -10 -6 -10 7 -14 34 -11 7 2 10 -2 6 -8
-3 -6 0 -9 8 -5 8 3 17 -2 21 -11 3 -9 11 -13 16 -10 6 4 22 0 35 -9 13 -9 26
-12 29 -7 3 5 19 7 36 6 17 -1 30 2 30 9 0 6 5 4 10 -4 5 -8 10 -10 10 -5 0 6
9 11 20 12 11 1 18 -2 15 -8 -4 -5 -2 -9 4 -9 5 0 13 5 17 11 4 8 9 7 15 -2 7
-11 9 -11 9 -1 0 7 4 11 9 7 5 -3 16 2 24 10 9 8 20 15 26 15 6 0 11 7 11 15
0 9 6 15 13 13 6 -1 25 10 41 25 16 15 26 27 23 27 -4 0 13 20 37 44 32 33 43
51 41 70 -2 14 1 26 6 26 5 0 4 11 -1 25 -8 20 -7 23 8 18 14 -6 15 -4 5 8 -6
8 -13 42 -15 76 -1 34 -6 59 -10 57 -8 -5 -10 0 -11 53 -1 17 -4 30 -8 28 -8
-5 -50 30 -50 42 0 4 -10 13 -22 20 -12 7 -18 12 -13 13 5 0 3 7 -4 15 -7 8
-16 12 -21 9 -5 -3 -6 2 -3 11 4 9 2 15 -4 13 -6 -2 -17 5 -25 16 -8 12 -27
19 -50 20 -20 0 -37 5 -37 10 0 5 -3 6 -7 3 -3 -4 -13 -1 -20 5 -8 7 -32 12
-54 13 -21 1 -41 4 -45 7 -3 4 -18 2 -33 -3 -18 -6 -37 -6 -55 1 -20 7 -25 7
-20 -2 5 -7 2 -9 -8 -6 -8 4 -21 2 -28 -2 -8 -5 -19 -6 -25 -2 -16 10 -35 11
-35 1 0 -5 -3 -8 -7 -8 -20 3 -34 -2 -28 -11 4 -6 -5 -10 -19 -10 -14 0 -26
-5 -26 -10 0 -6 -3 -9 -7 -8 -11 4 -73 -26 -73 -34 0 -4 -7 -4 -17 -1 -11 4
-14 3 -9 -5 5 -8 0 -12 -14 -12 -12 0 -19 -4 -15 -9 7 -12 -29 -33 -40 -23 -5
4 -5 1 -1 -6 9 -14 -12 -45 -24 -37 -5 3 -11 -4 -15 -14 -3 -11 -20 -32 -36
-46 -17 -14 -27 -25 -23 -25 4 0 -2 -8 -12 -18 -10 -9 -21 -26 -22 -37 -2 -11
-9 -23 -15 -27 -8 -5 -8 -8 2 -8 11 0 9 -4 -5 -15 -10 -8 -15 -15 -10 -15 6 0
1 -7 -10 -16 -10 -8 -12 -13 -4 -9 9 4 8 1 -3 -8 -12 -10 -14 -17 -8 -22 7 -4
8 -13 2 -23 -4 -9 -6 -23 -3 -31 2 -8 0 -11 -5 -8 -6 4 -7 -10 -3 -36 3 -23 3
-57 -1 -75 -4 -19 -2 -35 4 -39 6 -4 7 -1 2 7 -5 9 -4 11 4 6 8 -6 9 -12 2
-20 -6 -7 -8 -15 -5 -19 3 -3 7 -23 9 -44 2 -21 4 -42 4 -46 1 -5 6 -5 13 -1
8 5 9 2 5 -9 -3 -10 -3 -17 1 -17 4 0 7 -12 6 -28 0 -15 3 -30 8 -33 6 -4 11
-18 11 -33 1 -14 8 -26 15 -26 7 0 10 -5 7 -11 -4 -6 3 -13 15 -16 15 -4 20
-11 17 -24 -3 -10 0 -17 7 -16 6 1 11 -5 11 -13 0 -20 25 -39 53 -40 13 0 20
-4 17 -10 -4 -6 -3 -10 2 -9 22 4 43 -2 38 -11 -3 -6 2 -10 12 -10 15 0 16 -2
3 -10 -12 -8 -11 -10 8 -10 12 0 22 -5 22 -11 0 -6 6 -9 14 -6 7 3 25 -1 40
-8 15 -8 24 -11 22 -6 -3 4 14 -2 38 -13 24 -12 42 -23 40 -26 -1 -3 6 -7 17
-7 11 -1 17 2 15 6 -3 4 1 8 9 8 8 0 12 -4 10 -8 -3 -3 4 -9 15 -12 13 -3 18
-1 14 6 -5 8 -3 8 6 0 11 -10 16 -9 27 5 8 9 12 12 9 5 -6 -11 29 -30 47 -25
4 1 7 -3 7 -9 0 -5 4 -8 9 -4 5 3 13 1 16 -5 5 -8 11 -7 21 1 10 8 14 8 14 0
0 -7 8 -8 26 -1 31 12 37 12 30 2 -3 -5 1 -9 9 -9 8 0 15 5 15 10 0 6 3 8 6 4
4 -3 13 1 22 10 14 14 17 13 30 -3 13 -17 14 -17 9 -1 -5 14 -1 17 24 17 21 0
28 4 23 13 -5 8 -2 8 9 -2 11 -9 17 -10 17 -2 0 6 12 11 26 11 14 0 23 4 19 9
-3 6 3 10 12 10 15 1 42 3 100 10 7 0 10 8 7 16 -7 17 11 21 21 4 5 -6 13 -2
22 11 8 12 21 19 29 16 8 -3 14 0 14 7 0 8 4 6 10 -3 6 -9 10 -10 10 -3 0 12
34 27 71 32 5 0 7 6 4 11 -5 9 1 12 21 9 3 0 14 9 23 20 10 11 21 18 25 14 3
-3 6 3 6 15 0 16 4 20 17 15 11 -4 14 -3 9 5 -4 7 0 15 11 19 10 3 22 12 26
20 4 7 16 13 25 13 9 0 26 8 37 17 l20 16 -20 -6 c-18 -6 -17 -5 3 9 12 9 22
25 22 35 0 11 5 19 11 19 5 0 8 4 5 9 -3 5 1 12 9 15 8 3 14 10 13 15 -2 5 6
17 17 26 11 9 13 14 5 10 -8 -4 -6 1 4 9 11 9 17 16 13 16 -4 0 0 11 9 25 9
14 21 22 26 19 6 -4 5 3 -1 15 -7 11 -8 21 -2 21 5 0 6 14 1 34 -6 29 -5 34 9
28 14 -5 14 -4 1 13 -8 10 -10 16 -4 12 7 -4 14 3 17 18 2 14 0 28 -5 31 -6 4
-5 10 3 15 12 7 12 9 0 9 -11 0 -11 3 -1 15 7 8 9 15 5 15 -4 0 -1 8 6 17 12
15 12 16 -1 8 -13 -7 -13 -6 -2 7 7 8 14 31 15 49 2 19 7 40 11 48 6 9 5 12
-2 8 -6 -5 -8 0 -5 13 3 11 9 17 14 14 5 -3 4 7 -1 21 -6 16 -6 24 0 20 5 -3
8 9 6 30 -1 20 1 38 6 41 5 3 5 10 1 17 -10 16 -10 58 0 64 4 2 4 10 0 16 -11
15 -10 38 2 56 5 10 4 16 -4 19 -9 3 -9 7 0 18 9 11 9 17 0 28 -7 8 -8 17 -4
19 8 5 9 47 2 125 -2 17 -8 32 -14 32 -13 0 -13 28 -1 48 4 6 3 12 -1 12 -11
0 -11 71 0 87 5 7 4 13 -1 13 -6 0 -10 6 -9 13 1 30 -4 48 -11 43 -4 -2 -9 23
-10 57 -1 34 -7 64 -13 65 -6 3 -6 9 2 18 9 11 8 15 -4 19 -9 4 -14 17 -12 35
2 19 -1 27 -8 23 -6 -4 -8 0 -4 10 3 9 1 18 -6 21 -9 3 -8 5 1 5 10 1 10 6 1
22 -6 12 -7 19 -1 15 5 -3 12 1 16 9 3 8 0 17 -6 21 -7 5 -8 2 -3 -7 5 -8 4
-11 0 -6 -5 4 -9 16 -10 27 -1 16 1 18 13 7 13 -10 14 -9 3 11 -7 13 -10 29
-8 36 3 7 1 19 -3 26 -5 8 -2 19 7 29 10 10 12 16 4 19 -7 2 -8 10 -2 20 4 9
7 27 6 40 -1 13 2 25 7 28 4 3 3 14 -2 25 -8 14 -7 19 2 19 9 0 9 3 -2 10 -12
8 -12 10 -1 10 11 0 11 3 1 15 -9 11 -9 15 -1 15 8 0 9 6 3 18 -5 9 -7 23 -5
30 3 6 -1 12 -7 12 -9 0 -9 4 -2 13 13 15 19 88 8 105 -4 8 -1 12 11 13 16 0
16 1 -2 9 -11 5 -14 9 -6 9 11 1 11 4 1 16 -7 8 -8 15 -3 15 17 0 1 52 -25 81
-14 17 -31 26 -41 22 -12 -4 -13 -3 -3 5 8 5 13 13 13 18 0 5 9 9 21 9 12 0
23 7 25 15 4 13 3 13 -6 0 -6 -8 -11 -10 -11 -4 0 16 25 35 34 27 4 -4 3 4 -2
17 -7 19 -6 29 5 39 11 9 12 16 4 24 -13 13 -15 30 -2 23 5 -4 8 2 6 11 -1 10
-8 17 -16 15 -9 -2 -10 0 -1 11 7 8 8 18 4 22 -4 5 -1 5 6 1 7 -4 13 -2 13 6
1 13 0 20 -7 48 -20 83 -21 89 -10 87 6 -1 12 14 13 36 0 20 -4 37 -9 37 -6 0
-4 8 3 17 8 9 9 14 3 10 -7 -4 -14 0 -18 8 -3 8 0 15 7 15 8 0 8 3 -2 9 -11 7
-11 9 0 14 12 4 11 7 -1 16 -13 10 -13 11 0 11 13 0 13 1 0 10 -12 8 -12 10 5
10 16 0 17 2 6 9 -12 8 -12 12 -2 25 7 9 11 23 7 31 -4 11 -2 14 6 9 7 -5 9
-2 5 8 -3 9 -1 20 5 26 6 6 6 12 -1 16 -6 4 -11 13 -11 19 0 7 4 6 10 -3 7
-11 10 -5 11 25 1 22 1 46 0 53 -1 6 3 12 10 12 7 0 8 4 2 13 -11 14 -11 27 0
44 4 6 2 15 -4 19 -8 4 -7 9 2 15 11 7 11 11 1 21 -10 10 -8 16 10 31 13 10
17 16 11 12 -9 -4 -13 1 -13 14 0 12 -3 21 -8 21 -4 0 -7 12 -8 28 -1 37 -7
54 -22 70 -7 8 -10 18 -7 23 4 5 -1 9 -10 9 -9 0 -14 4 -10 10 3 5 -2 19 -12
30 -20 24 -60 49 -49 31 10 -16 -3 -14 -19 3 -8 7 -11 17 -7 21 4 4 -3 2 -15
-4 -13 -6 -23 -8 -23 -3 0 5 -16 4 -35 -2 -21 -7 -33 -16 -30 -23 2 -7 -2 -13
-9 -13 -8 0 -17 -7 -20 -16 -3 -8 -10 -13 -15 -10 -10 7 -24 -22 -16 -34 3 -5
0 -12 -6 -16 -8 -5 -9 -3 -4 7 8 12 6 12 -8 0 -9 -7 -15 -17 -12 -21 3 -4 -3
-25 -12 -46 -20 -48 -26 -106 -9 -98 6 3 3 -1 -8 -10 -19 -16 -33 -111 -14
-100 6 4 4 -4 -2 -17 -10 -17 -10 -24 -2 -27 8 -2 7 -8 -3 -18 -8 -8 -11 -22
-8 -31 5 -12 3 -14 -8 -8 -11 6 -12 5 -1 -6 6 -7 12 -28 12 -46 0 -20 5 -33
13 -33 7 0 8 -3 2 -8 -6 -4 -11 -27 -12 -52 0 -25 -2 -55 -2 -68 -1 -13 -5
-21 -9 -18 -5 3 -9 -1 -9 -9 0 -8 5 -11 11 -8 6 4 6 0 -1 -8 -7 -9 -13 -30
-15 -47 -1 -18 -7 -32 -13 -32 -5 0 -3 -4 5 -10 12 -7 11 -12 -5 -30 -16 -18
-16 -20 -2 -14 10 3 17 1 17 -5 0 -6 -8 -11 -17 -11 -13 0 -14 -3 -5 -12 7 -7
8 -17 1 -29 -8 -15 -6 -17 8 -12 16 6 16 5 5 -10 -8 -9 -12 -22 -9 -29 2 -7 0
-21 -5 -30 -7 -14 -5 -16 9 -11 15 5 16 4 7 -8 -15 -17 -14 -91 0 -102 8 -6 8
-10 0 -13 -16 -7 5 -64 23 -64 19 0 16 -10 -8 -31 -11 -10 -18 -22 -15 -28 4
-5 2 -13 -4 -16 -8 -5 -7 -12 2 -23 8 -10 9 -13 1 -9 -6 4 -14 3 -18 -3 -3 -5
0 -10 7 -10 8 0 9 -3 3 -8 -5 -4 -10 -16 -9 -27 0 -11 -4 -26 -9 -32 -6 -8 -6
-13 0 -13 5 0 9 -9 9 -20 0 -11 -4 -20 -9 -20 -5 0 -5 -6 2 -13 8 -10 7 -17
-2 -26 -9 -9 -9 -14 3 -21 8 -5 10 -10 4 -10 -6 0 -11 -11 -11 -25 0 -14 5
-25 11 -25 6 0 5 -4 -3 -9 -8 -5 -10 -14 -6 -22 6 -9 4 -11 -8 -6 -11 4 -14 2
-10 -8 3 -8 8 -13 12 -11 4 3 7 -4 7 -14 0 -10 -3 -17 -7 -14 -4 2 -10 -4 -13
-13 -4 -9 -2 -19 4 -23 6 -4 3 -14 -9 -27 -11 -11 -17 -24 -13 -27 3 -4 -2 -4
-12 0 -14 5 -17 4 -12 -4 4 -7 1 -12 -8 -12 -9 0 -16 -5 -16 -11 0 -5 -4 -7
-10 -4 -5 3 -10 1 -10 -6 0 -6 -8 -9 -20 -6 -11 3 -20 2 -20 -3 0 -12 -34 -6
-43 8 -4 6 -15 12 -22 12 -8 0 -15 5 -15 10 0 6 -7 10 -16 10 -8 0 -13 4 -10
9 3 5 -1 12 -10 15 -8 3 -12 11 -8 17 4 7 3 10 -2 7 -13 -8 -29 13 -32 42 -1
13 -8 28 -15 32 -9 6 -8 8 3 8 10 0 11 3 4 8 -15 9 -15 63 0 81 8 11 8 13 0 8
-7 -4 -14 0 -17 8 -4 9 -1 12 9 8 10 -4 13 1 11 16 -2 11 -6 24 -10 27 -4 4
-2 13 4 21 9 10 8 13 -2 13 -11 0 -11 2 1 10 9 6 11 10 3 10 -7 0 -10 7 -6 17
4 10 2 14 -4 10 -6 -4 -8 8 -6 33 2 23 0 40 -6 40 -7 0 -7 8 -1 26 6 15 6 23
1 19 -5 -3 -12 -1 -16 5 -3 5 0 10 7 10 9 0 9 3 -2 10 -11 7 -11 10 -2 10 7 0
11 4 8 8 -3 5 -6 25 -8 45 -1 21 -6 37 -11 37 -4 0 -5 5 -2 10 3 6 -1 13 -9
16 -9 3 -14 9 -12 13 2 3 -2 12 -10 19 -11 10 -14 10 -14 -1 0 -18 -69 -15
-81 4 -7 12 -9 12 -9 -1 0 -10 -3 -11 -8 -4 -4 6 -16 16 -27 22 -11 6 -15 12
-8 12 7 0 10 7 6 18 -5 16 -5 16 8 1 16 -20 65 -37 55 -20 -4 6 -3 11 3 11 6
0 8 7 5 15 -4 8 -10 12 -15 9 -5 -3 -6 3 -2 12 4 11 8 13 11 6 7 -22 20 -13
15 11 -4 18 -3 19 6 7 6 -8 11 -11 11 -7 0 5 7 1 16 -8 11 -11 20 -13 28 -5 7
5 15 7 18 5 3 -3 3 6 1 20 -3 13 -8 23 -12 21 -4 -3 -7 4 -7 15 0 10 4 19 8
19 4 0 8 5 8 11 0 5 -5 7 -11 3 -8 -4 -8 -1 -2 12 5 11 8 33 7 49 -1 17 2 37
7 46 5 10 2 24 -8 39 -9 13 -12 20 -6 17 6 -4 10 9 9 33 -1 22 -5 40 -11 40
-5 0 -3 5 5 10 11 7 11 10 2 10 -7 0 -10 5 -7 10 3 6 0 10 -7 10 -8 0 -9 3 -3
8 12 8 16 42 5 42 -4 0 -8 10 -9 23 -3 65 -9 98 -22 113 -9 11 -9 15 -2 10 9
-5 11 -2 7 8 -3 9 -10 14 -14 11 -4 -3 -10 4 -13 15 -3 11 -2 20 3 20 4 0 10
9 13 20 3 13 1 18 -6 13 -9 -5 -9 -3 -1 8 6 8 12 41 13 74 1 33 3 81 4 108 1
26 -2 47 -8 47 -5 0 -3 5 5 10 8 5 10 10 4 10 -5 0 -9 17 -8 38 2 47 -4 62
-25 62 -13 0 -13 2 -2 9 8 6 11 16 6 31 -6 17 -4 21 6 15 8 -5 5 2 -6 15 -11
13 -15 20 -8 17 8 -5 11 0 10 13 -1 11 -5 20 -9 20 -4 0 -6 13 -4 29 2 20 -2
32 -13 36 -13 5 -14 7 -1 15 11 7 12 10 2 10 -7 0 -10 5 -7 10 3 6 -1 13 -9
16 -9 3 -13 10 -10 15 3 5 1 9 -4 9 -11 0 -38 60 -34 74 2 5 -4 4 -12 -4 -13
-10 -16 -10 -16 3 0 10 -7 15 -20 12 -11 -2 -23 1 -26 7 -5 7 -2 8 7 3 8 -5
11 -4 6 0 -13 15 -58 17 -75 3 -12 -10 -14 -10 -8 0 4 6 5 12 2 12 -3 0 -10
-8 -15 -17z m211 -747 c8 -12 0 -33 -15 -39 -8 -3 -12 6 -12 23 0 27 13 35 27
16z m-727 -85 c3 -5 2 -12 -3 -15 -5 -3 -9 1 -9 9 0 17 3 19 12 6z m1530 -151
c18 -20 18 -21 0 -14 -13 5 -16 4 -11 -4 4 -7 3 -12 -3 -12 -15 0 -22 16 -15
34 8 20 7 20 29 -4z m-879 -428 c-14 -14 -17 -14 -14 -2 3 17 20 31 27 24 3
-2 -3 -12 -13 -22z m814 -123 c0 -11 -4 -18 -10 -14 -5 3 -7 12 -3 20 7 21 13
19 13 -6z m-1583 -94 c0 -8 -4 -12 -9 -9 -5 3 -6 10 -3 15 9 13 12 11 12 -6z
m-22 -34 c-9 -8 -36 -10 -30 -2 2 4 11 8 20 8 8 0 13 -3 10 -6z m1195 -1835
c0 -3 -4 -8 -10 -11 -5 -3 -10 -1 -10 4 0 6 5 11 10 11 6 0 10 -2 10 -4z
m-390 -206 c0 -5 -2 -10 -4 -10 -3 0 -8 5 -11 10 -3 6 -1 10 4 10 6 0 11 -4
11 -10z m-808 -273 c3 4 4 3 2 -3 -1 -6 3 -17 9 -24 9 -10 9 -11 0 -6 -7 4
-13 3 -13 -2 0 -5 -7 -9 -15 -9 -8 0 -15 4 -15 9 0 5 -4 6 -10 3 -6 -3 -7 1
-4 9 3 9 11 13 17 9 7 -4 8 0 3 12 -5 15 -4 16 8 6 8 -7 16 -8 18 -4z m1428
-367 c0 -5 -5 -10 -11 -10 -5 0 -7 5 -4 10 3 6 8 10 11 10 2 0 4 -4 4 -10z
m-1115 -20 c3 -5 2 -10 -4 -10 -5 0 -13 5 -16 10 -3 6 -2 10 4 10 5 0 13 -4
16 -10z m250 -110 c3 -5 2 -10 -4 -10 -5 0 -13 5 -16 10 -3 6 -2 10 4 10 5 0
13 -4 16 -10z"/>
<path d="M1884 3459 c-8 -14 14 -19 25 -6 8 10 7 14 -5 14 -8 0 -17 -4 -20 -8z"/>
<path d="M4415 2820 c3 -5 8 -10 11 -10 2 0 4 5 4 10 0 6 -5 10 -11 10 -5 0
-7 -4 -4 -10z"/>
</g>
</svg>
